<svg aria-hidden="true" style="position: absolute; width: 0; height: 0; overflow: hidden;" version="1.1" xmlns="http://www.w3.org/2000/svg" xmlns:xlink="http://www.w3.org/1999/xlink">
<defs>
<symbol id="icon-heart" viewBox="0 0 34 32">
<path  d="M13.679 1.746c-0.318-0.136-0.643-0.25-0.973-0.344 0.33 0.094 0.655 0.208 0.973 0.344zM13.679 1.746c0.139 0.059 0.276 0.122 0.412 0.19-0.136-0.067-0.274-0.13-0.412-0.19zM16.302 30.196c-0.208-0.144-0.411-0.29-0.615-0.433 0.203 0.143 0.406 0.29 0.615 0.433zM18.444 29.763c-0.203 0.143-0.406 0.29-0.615 0.433 0.208-0.144 0.411-0.29 0.615-0.433zM19.754 28.821c-0.19 0.14-0.38 0.282-0.575 0.423 0.195-0.141 0.385-0.283 0.575-0.423zM14.946 29.238c-0.167-0.121-0.332-0.242-0.496-0.362 0.164 0.12 0.329 0.241 0.496 0.362zM20.94 27.927c-0.134 0.103-0.268 0.209-0.404 0.313 0.137-0.104 0.27-0.209 0.404-0.313zM13.55 28.204c-0.107-0.081-0.211-0.165-0.317-0.246 0.105 0.081 0.21 0.164 0.317 0.246zM12.373 27.285c-0.146-0.116-0.289-0.234-0.431-0.35 0.142 0.116 0.285 0.234 0.431 0.35zM22.129 26.983c-0.11 0.089-0.22 0.179-0.331 0.269 0.112-0.089 0.221-0.18 0.331-0.269zM11.238 26.356c-0.188-0.158-0.372-0.318-0.554-0.475 0.182 0.157 0.366 0.317 0.554 0.475zM23.448 25.881c-0.183 0.158-0.368 0.316-0.556 0.475 0.189-0.159 0.374-0.317 0.556-0.475zM24.458 24.983c-0.176 0.161-0.355 0.324-0.537 0.486 0.183-0.162 0.361-0.325 0.537-0.486zM10.16 25.423c-0.145-0.128-0.288-0.256-0.429-0.383 0.141 0.128 0.284 0.255 0.429 0.383zM25.354 24.146c-0.117 0.112-0.234 0.225-0.354 0.337 0.12-0.113 0.237-0.226 0.354-0.337zM9.123 24.477c-0.114-0.107-0.226-0.214-0.338-0.321 0.111 0.107 0.224 0.214 0.338 0.321zM26.298 23.213c-0.121 0.123-0.242 0.247-0.366 0.371 0.124-0.124 0.246-0.248 0.366-0.371zM8.146 23.529c-0.103-0.103-0.206-0.206-0.306-0.308 0.101 0.103 0.203 0.205 0.306 0.308zM7.304 22.665c-0.114-0.121-0.225-0.241-0.335-0.36 0.11 0.12 0.222 0.24 0.335 0.36zM27.083 22.387c-0.070 0.076-0.141 0.153-0.212 0.229 0.072-0.076 0.142-0.153 0.212-0.229zM6.49 21.771c-0.098-0.111-0.195-0.221-0.29-0.331 0.095 0.11 0.192 0.22 0.29 0.331zM27.981 21.381c-0.109 0.128-0.222 0.255-0.335 0.383 0.113-0.128 0.226-0.256 0.335-0.383zM28.688 20.529c-0.115 0.145-0.236 0.288-0.356 0.433 0.121-0.146 0.241-0.289 0.356-0.433zM5.74 20.892c-0.083-0.101-0.165-0.2-0.246-0.3 0.080 0.1 0.163 0.199 0.246 0.3zM5.081 20.065c-0.093-0.122-0.185-0.242-0.275-0.363 0.090 0.121 0.182 0.241 0.275 0.363zM29.271 19.771c-0.053 0.071-0.106 0.141-0.16 0.212 0.054-0.071 0.108-0.142 0.16-0.212zM4.425 19.173c-0.065-0.092-0.131-0.183-0.194-0.275 0.063 0.092 0.129 0.183 0.194 0.275zM29.898 18.902c-0.054 0.079-0.111 0.156-0.167 0.235 0.056-0.079 0.113-0.157 0.167-0.235zM3.856 18.331c-0.057-0.088-0.116-0.173-0.171-0.26 0.055 0.087 0.114 0.173 0.171 0.26zM30.425 18.102c-0.034 0.054-0.070 0.107-0.104 0.16 0.035-0.054 0.070-0.107 0.104-0.16zM3.329 17.481c-0.042-0.072-0.086-0.143-0.127-0.215 0.041 0.072 0.085 0.142 0.127 0.215zM30.923 17.275c-0.030 0.053-0.063 0.105-0.094 0.158 0.031-0.053 0.063-0.105 0.094-0.158zM31.342 16.515c-0.032 0.063-0.071 0.123-0.104 0.185 0.044-0.083 0.089-0.164 0.131-0.246-0.010 0.020-0.017 0.041-0.027 0.060zM2.846 16.617c-0.018-0.034-0.037-0.066-0.054-0.1-0.006-0.012-0.012-0.025-0.019-0.038 0.024 0.046 0.049 0.091 0.073 0.137zM2.475 15.869c-0.031-0.065-0.064-0.129-0.094-0.194 0.030 0.065 0.063 0.129 0.094 0.194zM31.756 15.656c-0.032 0.071-0.064 0.142-0.098 0.213 0.034-0.071 0.066-0.142 0.098-0.213zM2.194 15.24c-0.053-0.126-0.109-0.249-0.158-0.373 0.049 0.124 0.105 0.247 0.158 0.373zM32.090 14.879c-0.047 0.118-0.099 0.236-0.15 0.356 0.051-0.12 0.103-0.238 0.15-0.356zM32.369 14.123c-0.039 0.115-0.082 0.23-0.125 0.346 0.042-0.116 0.086-0.231 0.125-0.346zM1.863 14.4c-0.029-0.080-0.060-0.158-0.087-0.238 0.027 0.079 0.059 0.158 0.087 0.238zM32.592 13.41c-0.027 0.096-0.058 0.191-0.087 0.287 0.030-0.097 0.060-0.192 0.087-0.287zM1.617 13.665c-0.027-0.087-0.055-0.174-0.079-0.26 0.024 0.087 0.053 0.173 0.079 0.26zM1.423 12.963c-0.022-0.091-0.044-0.181-0.065-0.271 0.020 0.090 0.042 0.18 0.065 0.271zM32.773 12.692c-0.019 0.084-0.040 0.168-0.060 0.252 0.021-0.085 0.042-0.168 0.060-0.252zM1.269 12.244c-0.015-0.083-0.032-0.164-0.046-0.246 0.014 0.082 0.030 0.163 0.046 0.246zM32.908 12c-0.013 0.081-0.029 0.162-0.044 0.244 0.015-0.082 0.030-0.163 0.044-0.244zM1.165 11.608c-0.014-0.104-0.027-0.208-0.038-0.31 0.011 0.103 0.024 0.206 0.038 0.31zM32.998 11.346c-0.006 0.055-0.012 0.11-0.019 0.165 0.007-0.055 0.013-0.11 0.019-0.165zM1.098 10.96c-0.008-0.111-0.016-0.222-0.021-0.331 0.005 0.11 0.013 0.22 0.021 0.331zM33.050 10.679c-0.003 0.057-0.007 0.114-0.010 0.171 0.004-0.057 0.008-0.114 0.010-0.171zM1.071 10.346c-0.002-0.119-0.002-0.237 0-0.354-0.002 0.117-0.002 0.235 0 0.354zM33.060 10.031c0.001 0.068 0 0.137 0 0.206 0-0.069 0.001-0.138 0-0.206zM1.081 9.694c0.005-0.106 0.012-0.211 0.021-0.315-0.008 0.104-0.016 0.209-0.021 0.315zM33.036 9.415c0.005 0.070 0.006 0.141 0.010 0.213-0.004-0.071-0.005-0.142-0.010-0.213zM1.131 9.083c0.012-0.11 0.026-0.219 0.042-0.327-0.016 0.108-0.029 0.217-0.042 0.327zM32.967 8.802c0.009 0.064 0.017 0.129 0.025 0.194-0.008-0.065-0.016-0.13-0.025-0.194zM1.212 8.506c0.018-0.102 0.037-0.202 0.058-0.302-0.021 0.1-0.040 0.2-0.058 0.302zM32.867 8.233c0.016 0.074 0.028 0.15 0.042 0.225-0.014-0.075-0.026-0.151-0.042-0.225zM1.337 7.917c0.020-0.080 0.039-0.161 0.060-0.24-0.022 0.079-0.041 0.159-0.060 0.24zM32.731 7.669c0.022 0.080 0.040 0.162 0.060 0.244-0.020-0.082-0.038-0.163-0.060-0.244zM1.496 7.354c0.022-0.070 0.043-0.14 0.067-0.208-0.024 0.069-0.045 0.139-0.067 0.208zM32.577 7.169c0.017 0.051 0.033 0.103 0.050 0.154-0.016-0.052-0.032-0.103-0.050-0.154zM32.362 6.606c0.032 0.075 0.062 0.151 0.092 0.227-0.030-0.076-0.060-0.152-0.092-0.227zM1.681 6.825c0.029-0.074 0.059-0.146 0.090-0.219-0.030 0.072-0.061 0.145-0.090 0.219zM1.883 6.35c0.018-0.040 0.035-0.081 0.054-0.121 0.014-0.029 0.029-0.059 0.044-0.088-0.034 0.069-0.066 0.138-0.098 0.208zM32.194 6.227c0.015 0.031 0.027 0.063 0.042 0.094-0.026-0.055-0.052-0.11-0.079-0.165 0.012 0.024 0.026 0.047 0.038 0.071zM31.894 5.66c0.038 0.066 0.074 0.134 0.11 0.202-0.037-0.068-0.072-0.136-0.11-0.202zM2.135 5.848c0.030-0.055 0.061-0.11 0.092-0.165-0.031 0.054-0.062 0.109-0.092 0.165zM31.623 5.219c0.037 0.057 0.072 0.115 0.108 0.173-0.036-0.058-0.071-0.116-0.108-0.173zM2.423 5.354c0.026-0.041 0.053-0.081 0.079-0.121-0.026 0.040-0.053 0.080-0.079 0.121zM2.694 4.95c0.045-0.063 0.091-0.126 0.138-0.188-0.047 0.062-0.092 0.124-0.138 0.188zM31.302 4.763c0.045 0.060 0.089 0.122 0.133 0.183-0.044-0.062-0.088-0.123-0.133-0.183zM30.963 4.34c0.057 0.066 0.112 0.134 0.167 0.202-0.055-0.068-0.11-0.136-0.167-0.202zM3.042 4.496c0.030-0.037 0.059-0.076 0.090-0.112-0.031 0.037-0.059 0.075-0.090 0.112zM30.623 3.965c0.053 0.055 0.105 0.11 0.156 0.167-0.051-0.056-0.104-0.112-0.156-0.167zM3.385 4.096c0.030-0.032 0.060-0.064 0.090-0.096-0.030 0.032-0.060 0.064-0.090 0.096zM30.198 3.548c0.075 0.069 0.148 0.139 0.221 0.21-0.073-0.071-0.146-0.142-0.221-0.21zM3.76 3.71c0.029-0.028 0.058-0.054 0.087-0.081-0.029 0.027-0.059 0.054-0.087 0.081zM15.969 3.223c0.113 0.105 0.225 0.212 0.333 0.323l-0.371-0.354 0.037 0.031zM29.858 3.252c0.061 0.051 0.121 0.102 0.181 0.154-0.060-0.052-0.12-0.104-0.181-0.154zM4.175 3.335c0.017-0.015 0.035-0.029 0.052-0.044-0.017 0.015-0.035 0.029-0.052 0.044zM29.458 2.94c0.049 0.036 0.098 0.073 0.146 0.11-0.048-0.037-0.097-0.074-0.146-0.11zM4.569 3.017c0.015-0.011 0.029-0.022 0.044-0.033-0.015 0.011-0.029 0.022-0.044 0.033zM15.508 2.831c0.070 0.055 0.137 0.115 0.206 0.173-0.069-0.058-0.136-0.118-0.206-0.173zM28.996 2.619c0.078 0.051 0.155 0.101 0.231 0.154-0.076-0.053-0.154-0.104-0.231-0.154zM4.931 2.754c0.061-0.042 0.123-0.082 0.185-0.123-0.062 0.041-0.124 0.081-0.185 0.123zM15.067 2.506c0.102 0.070 0.202 0.145 0.302 0.221-0.1-0.076-0.2-0.151-0.302-0.221zM18.971 2.573c0.013-0.009 0.026-0.018 0.040-0.027-0.013 0.009-0.026 0.018-0.040 0.027zM28.594 2.371c0.060 0.035 0.118 0.070 0.177 0.106-0.059-0.036-0.118-0.072-0.177-0.106zM5.36 2.475c0.063-0.038 0.126-0.076 0.19-0.112-0.064 0.037-0.127 0.074-0.19 0.112zM14.627 2.227c0.115 0.068 0.227 0.14 0.34 0.215-0.112-0.074-0.225-0.147-0.34-0.215zM19.419 2.279c0.010-0.006 0.019-0.015 0.029-0.021-0.010 0.006-0.019 0.015-0.029 0.021zM5.829 2.208c0.053-0.028 0.105-0.056 0.158-0.083-0.053 0.027-0.106 0.055-0.158 0.083zM28.15 2.127c0.050 0.026 0.1 0.052 0.15 0.079-0.050-0.027-0.1-0.053-0.15-0.079zM14.16 1.969c0.111 0.056 0.219 0.118 0.327 0.179-0.109-0.061-0.216-0.123-0.327-0.179zM19.756 2.085c0.061-0.033 0.122-0.068 0.183-0.1-0.062 0.032-0.122 0.067-0.183 0.1zM6.273 1.983c0.069-0.032 0.139-0.063 0.208-0.094-0.070 0.031-0.139 0.061-0.208 0.094zM27.677 1.902c0.053 0.024 0.106 0.046 0.159 0.071-0.052-0.024-0.106-0.047-0.159-0.071zM20.16 1.879c0.084-0.040 0.169-0.080 0.254-0.117-0.085 0.037-0.17 0.077-0.254 0.117zM6.733 1.781c0.067-0.027 0.135-0.053 0.202-0.079-0.068 0.026-0.135 0.052-0.202 0.079zM27.177 1.694c0.073 0.028 0.145 0.056 0.217 0.085-0.072-0.029-0.144-0.058-0.217-0.085zM20.583 1.692c0.11-0.045 0.22-0.087 0.331-0.127-0.111 0.040-0.221 0.083-0.331 0.127zM26.669 1.517c0.084 0.027 0.167 0.054 0.25 0.083-0.083-0.029-0.166-0.057-0.25-0.083zM7.263 1.583c0.036-0.012 0.072-0.024 0.108-0.035-0.036 0.012-0.072 0.023-0.108 0.035zM21.052 1.519c0.11-0.037 0.22-0.074 0.331-0.106-0.111 0.032-0.221 0.069-0.331 0.106zM26.196 1.381c0.079 0.021 0.157 0.042 0.235 0.065-0.078-0.023-0.157-0.044-0.235-0.065zM7.758 1.429c0.035-0.010 0.071-0.020 0.106-0.029-0.035 0.010-0.071 0.019-0.106 0.029zM12.25 1.285c0.134 0.030 0.267 0.065 0.4 0.102-0.133-0.037-0.266-0.072-0.4-0.102zM21.587 1.358c0.098-0.026 0.197-0.051 0.296-0.073-0.099 0.022-0.198 0.047-0.296 0.073zM8.215 1.313c0.081-0.019 0.162-0.036 0.244-0.052-0.081 0.016-0.163 0.034-0.244 0.052zM25.729 1.271c0.057 0.012 0.114 0.025 0.171 0.038-0.057-0.013-0.114-0.026-0.171-0.038zM11.713 1.181c0.117 0.019 0.234 0.041 0.35 0.065-0.116-0.024-0.233-0.046-0.35-0.065zM22.077 1.244c0.101-0.020 0.202-0.040 0.304-0.056-0.102 0.017-0.203 0.036-0.304 0.056zM8.706 1.212c0.078-0.014 0.156-0.024 0.233-0.035-0.078 0.012-0.156 0.022-0.233 0.035zM25.158 1.171c0.088 0.013 0.177 0.024 0.265 0.040-0.088-0.015-0.176-0.027-0.265-0.040zM11.192 1.115c0.151 0.015 0.302 0.036 0.452 0.058-0.15-0.023-0.301-0.043-0.452-0.058zM22.581 1.158c0.108-0.015 0.216-0.031 0.325-0.042-0.109 0.011-0.217 0.026-0.325 0.042zM9.213 1.137c0.086-0.010 0.172-0.017 0.258-0.025-0.086 0.008-0.172 0.015-0.258 0.025zM24.621 1.108c0.101 0.009 0.202 0.017 0.302 0.029-0.1-0.012-0.201-0.020-0.302-0.029zM10.715 1.081c0.143 0.006 0.285 0.016 0.427 0.029-0.142-0.013-0.284-0.023-0.427-0.029zM23.054 1.104c0.118-0.010 0.236-0.020 0.354-0.025-0.118 0.005-0.236 0.015-0.354 0.025zM24.071 1.075c0.126 0.003 0.252 0.010 0.377 0.019-0.126-0.009-0.251-0.015-0.377-0.019zM9.725 1.092c0.090-0.006 0.179-0.009 0.269-0.012-0.090 0.003-0.179 0.007-0.269 0.012zM10.556 1.077c-0.114-0.003-0.228-0.005-0.342-0.004 0.114-0.001 0.228 0.001 0.342 0.004z"></path>
</symbol>
<symbol id="icon-car" viewBox="0 0 43 32">
<path d="M10.667 18.667c0 0.707-0.281 1.386-0.781 1.886s-1.178 0.781-1.886 0.781c-0.707 0-1.386-0.281-1.886-0.781s-0.781-1.178-0.781-1.886c0-0.707 0.281-1.386 0.781-1.886s1.178-0.781 1.886-0.781c0.707 0 1.386 0.281 1.886 0.781s0.781 1.178 0.781 1.886zM37.333 18.667c0 0.707-0.281 1.386-0.781 1.886s-1.178 0.781-1.886 0.781c-0.707 0-1.386-0.281-1.886-0.781s-0.781-1.178-0.781-1.886c0-0.707 0.281-1.386 0.781-1.886s1.178-0.781 1.886-0.781c0.707 0 1.386 0.281 1.886 0.781s0.781 1.178 0.781 1.886zM16 16c-0.707 0-1.386 0.281-1.886 0.781s-0.781 1.178-0.781 1.886c0 0.707 0.281 1.386 0.781 1.886s1.178 0.781 1.886 0.781h10.667c0.707 0 1.386-0.281 1.886-0.781s0.781-1.178 0.781-1.886c0-0.707-0.281-1.386-0.781-1.886s-1.178-0.781-1.886-0.781h-10.667zM12.965 6.069l-2.549 5.104c-0.104 0.215-0.15 0.454-0.133 0.692s0.097 0.468 0.232 0.666c0.134 0.198 0.318 0.356 0.534 0.46s0.454 0.149 0.692 0.131c2.427-0.195 6.267-0.453 9.592-0.453s7.168 0.259 9.592 0.453c0.238 0.018 0.477-0.027 0.693-0.131s0.399-0.263 0.534-0.46 0.214-0.427 0.232-0.666c0.017-0.238-0.028-0.477-0.133-0.692l-2.549-5.101c-0.11-0.222-0.281-0.408-0.491-0.539s-0.453-0.2-0.701-0.2h-14.352c-0.247 0-0.49 0.069-0.7 0.199s-0.381 0.316-0.492 0.537z"></path>
<path d="M6.72 4.040c0.514-1.2 1.37-2.223 2.46-2.941s2.368-1.1 3.673-1.099h16.965c2.667 0 5.077 1.589 6.128 4.040l2.112 4.928c0.2 0.467 0.56 0.851 1.013 1.077 1.333 0.667 2.28 1.907 2.573 3.365l0.893 4.477c0.089 0.43 0.133 0.866 0.131 1.307v1.101c0 2.171-1.040 4.115-2.667 5.325v5.045c0 0.354-0.141 0.693-0.39 0.943s-0.589 0.39-0.943 0.39h-5.333c-0.354 0-0.693-0.141-0.943-0.39s-0.39-0.589-0.39-0.943v-3.568c-3.445 0.128-7.32 0.235-10.667 0.235s-7.221-0.107-10.667-0.235v3.568c0 0.354-0.14 0.693-0.391 0.943s-0.589 0.39-0.943 0.39h-5.333c-0.354 0-0.693-0.141-0.943-0.39s-0.391-0.589-0.391-0.943v-5.045c-1.627-1.211-2.667-3.155-2.667-5.325v-1.101c0-0.439 0.044-0.876 0.131-1.307l0.893-4.48c0.293-1.456 1.24-2.699 2.571-3.363 0.456-0.226 0.817-0.608 1.016-1.077l2.112-4.928h-0.005zM12.853 2.667c-0.783 0-1.549 0.23-2.203 0.661s-1.166 1.045-1.474 1.765l-2.112 4.925c-0.448 1.048-1.254 1.903-2.275 2.411-0.294 0.146-0.55 0.357-0.749 0.618s-0.335 0.564-0.398 0.886l-0.896 4.477c-0.052 0.258-0.079 0.521-0.080 0.784v1.101c0 2.123 1.653 3.861 3.755 3.957 4.147 0.187 10.096 0.413 14.912 0.413s10.765-0.224 14.912-0.413c1.015-0.049 1.972-0.488 2.671-1.226s1.087-1.716 1.083-2.732v-1.101c0-0.263-0.027-0.524-0.080-0.784l-0.893-4.48c-0.063-0.322-0.199-0.624-0.398-0.884s-0.455-0.471-0.749-0.617c-1.021-0.508-1.827-1.363-2.275-2.411l-2.112-4.928c-0.309-0.72-0.822-1.334-1.476-1.764s-1.421-0.66-2.204-0.66h-16.96z"></path>
</symbol>
<symbol id="icon-line" viewBox="0 0 4 32">
<path fill="none" stroke="#dadde1" style="stroke: var(--color2, #dadde1)" stroke-linejoin="miter" stroke-linecap="butt" stroke-miterlimit="4" stroke-width="2" d="M2 0v32"></path>
</symbol>
<symbol id="icon-rental-car" viewBox="0 0 204 32">
<path fill="#3470ff" style="fill: var(--color3, #3470ff)" d="M202.142 15.291c-1.366 0-2.614 0.079-3.744 0.236s-2.351 0.473-3.665 0.946v15.054h-6.857v-22.384h5.084l1.025 2.64c1.366-1.103 2.706-1.892 4.020-2.365s2.694-0.709 4.138-0.709v6.581z"></path>
<path fill="#3470ff" style="fill: var(--color3, #3470ff)" d="M184.597 31.291c-0.841 0.184-1.59 0.315-2.246 0.394-0.63 0.079-1.379 0.118-2.246 0.118-2.522 0-4.177-0.814-4.966-2.443-1.103 0.814-2.207 1.432-3.31 1.852s-2.312 0.631-3.626 0.631c-1.182 0-2.246-0.25-3.192-0.749s-1.682-1.169-2.207-2.010c-0.525-0.841-0.788-1.76-0.788-2.759 0-1.682 0.42-3.008 1.261-3.98 0.867-0.998 2.023-1.787 3.468-2.365 1.445-0.604 3.639-1.327 6.581-2.167l1.182-0.355v-0.158c0-2.417-1.103-3.626-3.31-3.626-1.077 0-2.233 0.236-3.468 0.709s-2.654 1.235-4.256 2.286l-1.301-4.729c1.787-1.025 3.599-1.826 5.438-2.404 1.865-0.578 3.836-0.867 5.911-0.867 2.522 0 4.453 0.683 5.793 2.049 1.366 1.366 2.049 3.704 2.049 7.015v7.488c0 0.578 0.118 0.998 0.355 1.261 0.237 0.236 0.618 0.355 1.143 0.355 0.499 0 0.998-0.066 1.498-0.197l0.236 4.65zM168.873 25.419c0 0.525 0.131 0.906 0.394 1.143 0.289 0.236 0.736 0.355 1.34 0.355 1.103 0 2.404-0.473 3.901-1.419v-4.177l-0.591 0.197c-1.971 0.709-3.31 1.34-4.020 1.892-0.683 0.526-1.025 1.195-1.025 2.010z"></path>
<path fill="#3470ff" style="fill: var(--color3, #3470ff)" d="M150.364 32c-3.258 0-6.016-0.631-8.276-1.892-2.26-1.287-3.954-2.982-5.084-5.084-1.103-2.128-1.655-4.44-1.655-6.936 0-2.47 0.578-4.755 1.734-6.857 1.182-2.102 2.929-3.783 5.241-5.044s5.097-1.892 8.355-1.892c3.048 0 5.728 0.591 8.040 1.773l-1.419 4.966c-0.972-0.499-1.984-0.893-3.034-1.182-1.051-0.315-2.246-0.473-3.586-0.473-1.708 0-3.192 0.394-4.453 1.182-1.235 0.762-2.181 1.813-2.837 3.153-0.631 1.314-0.946 2.785-0.946 4.414 0 2.575 0.683 4.69 2.049 6.345 1.366 1.629 3.324 2.443 5.872 2.443 2.181 0 4.532-0.539 7.054-1.616l1.34 4.847c-1.077 0.552-2.365 0.998-3.862 1.34s-3.008 0.512-4.532 0.512z"></path>
<path fill="#101828" style="fill: var(--color4, #101828)" d="M123.567 0h6.857v31.527h-6.857v-31.527z"></path>
<path fill="#101828" style="fill: var(--color4, #101828)" d="M120.288 31.291c-0.841 0.184-1.589 0.315-2.246 0.394-0.631 0.079-1.379 0.118-2.246 0.118-2.522 0-4.177-0.814-4.965-2.443-1.104 0.814-2.207 1.432-3.31 1.852s-2.312 0.631-3.626 0.631c-1.182 0-2.246-0.25-3.192-0.749s-1.681-1.169-2.207-2.010c-0.526-0.841-0.788-1.76-0.788-2.759 0-1.682 0.42-3.008 1.261-3.98 0.867-0.998 2.023-1.787 3.468-2.365 1.445-0.604 3.639-1.327 6.581-2.167l1.182-0.355v-0.158c0-2.417-1.103-3.626-3.31-3.626-1.077 0-2.233 0.236-3.468 0.709s-2.653 1.235-4.256 2.286l-1.3-4.729c1.787-1.025 3.599-1.826 5.438-2.404 1.865-0.578 3.836-0.867 5.911-0.867 2.522 0 4.453 0.683 5.793 2.049 1.366 1.366 2.049 3.704 2.049 7.015v7.488c0 0.578 0.118 0.998 0.355 1.261 0.236 0.236 0.617 0.355 1.143 0.355 0.499 0 0.998-0.066 1.498-0.197l0.236 4.65zM104.564 25.419c0 0.525 0.131 0.906 0.394 1.143 0.289 0.236 0.736 0.355 1.34 0.355 1.104 0 2.404-0.473 3.902-1.419v-4.177l-0.591 0.197c-1.97 0.709-3.31 1.34-4.020 1.892-0.683 0.526-1.025 1.195-1.025 2.010z"></path>
<path fill="#101828" style="fill: var(--color4, #101828)" d="M95.248 30.069c-0.788 0.552-1.734 0.985-2.837 1.301-1.077 0.289-2.128 0.433-3.153 0.433-2.785 0-4.86-0.604-6.227-1.813-1.366-1.235-2.049-2.995-2.049-5.281v-10.719h-3.35v-2.877l4.217-1.695 1.892-6.030h4.098v5.754h6.306v4.847h-6.306v9.064c0 1.393 0.223 2.378 0.67 2.956s1.117 0.867 2.010 0.867c1.156 0 2.378-0.342 3.665-1.025l1.064 4.217z"></path>
<path fill="#101828" style="fill: var(--color4, #101828)" d="M66.38 8.67c2.916 0 4.926 0.775 6.029 2.325 1.13 1.55 1.695 3.783 1.695 6.7v13.833h-6.857v-12.966c0-1.839-0.223-3.113-0.67-3.823-0.42-0.709-1.248-1.064-2.483-1.064-1.34 0-2.706 0.447-4.099 1.34v16.512h-6.857v-22.384h5.084l0.709 1.852c2.575-1.55 5.058-2.325 7.448-2.325z"></path>
<path fill="#101828" style="fill: var(--color4, #101828)" d="M34.057 21.596c0.131 1.865 0.591 3.245 1.379 4.138s1.997 1.34 3.626 1.34c1.209 0 2.325-0.21 3.35-0.63 1.051-0.447 2.246-1.103 3.586-1.97l1.852 4.335c-1.392 1.13-2.772 1.944-4.138 2.443s-2.929 0.749-4.69 0.749c-2.601 0-4.782-0.499-6.542-1.498-1.76-1.025-3.074-2.404-3.941-4.138-0.841-1.76-1.261-3.757-1.261-5.99 0-3.547 0.998-6.384 2.995-8.512s4.913-3.192 8.749-3.192c3.048 0 5.36 0.828 6.936 2.483 1.603 1.629 2.417 3.954 2.443 6.975 0 1.182-0.171 2.338-0.512 3.468h-13.833zM41.741 17.143c0.026-0.158 0.039-0.368 0.039-0.631-0.026-1.077-0.315-1.892-0.867-2.443-0.552-0.578-1.314-0.867-2.286-0.867-2.312 0-3.757 1.314-4.335 3.941h7.448z"></path>
<path fill="#101828" style="fill: var(--color4, #101828)" d="M10.877 21.675h-3.783v9.852h-7.094v-26.798h10.719c3.836 0 6.634 0.657 8.394 1.97 1.76 1.287 2.64 3.323 2.64 6.108 0 3.626-1.327 6.056-3.98 7.291l7.527 11.429h-8.197l-6.227-9.852zM7.094 16.749h3.626c1.392 0 2.391-0.289 2.995-0.867 0.631-0.578 0.946-1.471 0.946-2.68 0-1.261-0.302-2.168-0.906-2.719s-1.616-0.828-3.034-0.828h-3.626v7.094z"></path>
</symbol>
<symbol id="icon-check-circle" viewBox="0 0 32 32">
<path d="M16 30c-3.713 0-7.274-1.475-9.899-4.101s-4.101-6.186-4.101-9.899 1.475-7.274 4.101-9.899c2.626-2.626 6.186-4.101 9.899-4.101s7.274 1.475 9.899 4.101c2.626 2.626 4.101 6.186 4.101 9.899s-1.475 7.274-4.101 9.899c-2.625 2.626-6.186 4.101-9.899 4.101zM16 32c4.243 0 8.313-1.686 11.314-4.686s4.686-7.070 4.686-11.314c0-4.243-1.686-8.313-4.686-11.314s-7.070-4.686-11.314-4.686c-4.243 0-8.313 1.686-11.314 4.686s-4.686 7.070-4.686 11.314c0 4.243 1.686 8.313 4.686 11.314s7.070 4.686 11.314 4.686z"></path>
<path d="M21.94 9.94l-0.040 0.044-6.946 8.85-4.186-4.188c-0.284-0.265-0.66-0.409-1.049-0.402s-0.759 0.164-1.034 0.439c-0.275 0.275-0.432 0.646-0.439 1.034s0.137 0.765 0.402 1.049l5.292 5.294c0.143 0.142 0.312 0.254 0.499 0.33s0.387 0.112 0.588 0.108c0.201-0.004 0.4-0.048 0.584-0.13s0.349-0.2 0.487-0.348l7.984-9.98c0.272-0.285 0.42-0.666 0.414-1.060s-0.168-0.77-0.45-1.046c-0.282-0.276-0.66-0.43-1.054-0.429s-0.772 0.157-1.052 0.435z"></path>
</symbol>
<symbol id="icon-gear" viewBox="0 0 32 32">
<path d="M16 9.508c-0.853 0-1.697 0.168-2.484 0.494s-1.503 0.804-2.106 1.407c-0.603 0.603-1.081 1.319-1.407 2.106s-0.494 1.632-0.494 2.484c0 0.853 0.168 1.697 0.494 2.484s0.804 1.503 1.407 2.106c0.603 0.603 1.319 1.081 2.106 1.407s1.632 0.494 2.484 0.494c1.722 0 3.373-0.684 4.591-1.901s1.901-2.869 1.901-4.591-0.684-3.373-1.901-4.591c-1.218-1.217-2.869-1.901-4.591-1.901zM11.508 16c0-1.191 0.473-2.334 1.316-3.176s1.985-1.316 3.176-1.316c1.191 0 2.334 0.473 3.176 1.316s1.316 1.985 1.316 3.176-0.473 2.334-1.316 3.176c-0.842 0.842-1.985 1.316-3.176 1.316s-2.334-0.473-3.176-1.316c-0.842-0.842-1.316-1.985-1.316-3.176z"></path>
<path d="M19.592 2.686c-1.054-3.58-6.13-3.58-7.184 0l-0.188 0.638c-0.074 0.25-0.202 0.48-0.376 0.674s-0.389 0.346-0.63 0.446c-0.241 0.1-0.501 0.144-0.761 0.131s-0.514-0.086-0.743-0.21l-0.584-0.32c-3.28-1.784-6.866 1.804-5.080 5.082l0.318 0.584c0.125 0.229 0.196 0.483 0.21 0.743s-0.031 0.52-0.131 0.761c-0.1 0.241-0.252 0.456-0.446 0.63s-0.424 0.303-0.674 0.376l-0.638 0.188c-3.58 1.054-3.58 6.13 0 7.184l0.638 0.188c0.25 0.074 0.48 0.202 0.674 0.376s0.346 0.389 0.446 0.63c0.1 0.241 0.144 0.501 0.131 0.761s-0.086 0.514-0.21 0.743l-0.32 0.584c-1.784 3.28 1.802 6.868 5.082 5.080l0.584-0.318c0.229-0.125 0.483-0.196 0.743-0.21s0.52 0.031 0.761 0.13c0.241 0.1 0.456 0.252 0.63 0.446s0.303 0.424 0.376 0.674l0.188 0.638c1.054 3.58 6.13 3.58 7.184 0l0.188-0.638c0.074-0.25 0.202-0.48 0.376-0.674s0.389-0.346 0.63-0.446c0.241-0.1 0.501-0.144 0.761-0.13s0.514 0.086 0.743 0.21l0.584 0.32c3.28 1.786 6.868-1.804 5.080-5.082l-0.318-0.584c-0.125-0.229-0.196-0.483-0.21-0.743s0.031-0.52 0.13-0.761c0.1-0.241 0.252-0.456 0.446-0.63s0.424-0.303 0.674-0.376l0.638-0.188c3.58-1.054 3.58-6.13 0-7.184l-0.638-0.188c-0.25-0.074-0.48-0.202-0.674-0.376s-0.346-0.389-0.446-0.63c-0.1-0.241-0.144-0.501-0.13-0.761s0.086-0.514 0.21-0.743l0.32-0.584c1.786-3.28-1.804-6.866-5.082-5.080l-0.584 0.318c-0.229 0.125-0.483 0.196-0.743 0.21s-0.52-0.031-0.761-0.131c-0.241-0.1-0.456-0.252-0.63-0.446s-0.303-0.424-0.376-0.674l-0.188-0.638zM14.326 3.252c0.492-1.67 2.856-1.67 3.348 0l0.188 0.638c0.158 0.536 0.434 1.030 0.808 1.446s0.836 0.742 1.352 0.956c0.516 0.214 1.074 0.309 1.632 0.28s1.103-0.184 1.593-0.452l0.582-0.32c1.528-0.83 3.2 0.84 2.368 2.37l-0.318 0.584c-0.267 0.491-0.421 1.035-0.45 1.593s0.066 1.116 0.28 1.632c0.214 0.516 0.541 0.978 0.957 1.352s0.91 0.649 1.446 0.807l0.636 0.188c1.67 0.492 1.67 2.856 0 3.348l-0.638 0.188c-0.536 0.158-1.030 0.434-1.446 0.808s-0.742 0.836-0.956 1.352c-0.214 0.516-0.309 1.074-0.28 1.632s0.184 1.103 0.452 1.593l0.32 0.582c0.83 1.528-0.84 3.2-2.37 2.368l-0.582-0.318c-0.491-0.268-1.036-0.422-1.594-0.451s-1.116 0.066-1.633 0.28c-0.517 0.214-0.979 0.541-1.352 0.957s-0.65 0.91-0.807 1.446l-0.188 0.636c-0.492 1.67-2.856 1.67-3.348 0l-0.188-0.638c-0.158-0.536-0.434-1.030-0.808-1.445s-0.835-0.742-1.352-0.956c-0.516-0.214-1.074-0.309-1.632-0.28s-1.102 0.184-1.593 0.451l-0.584 0.32c-1.528 0.83-3.2-0.84-2.368-2.37l0.318-0.582c0.268-0.491 0.423-1.036 0.452-1.594s-0.066-1.116-0.279-1.633c-0.214-0.517-0.541-0.979-0.957-1.353s-0.91-0.65-1.447-0.808l-0.638-0.188c-1.67-0.492-1.67-2.856 0-3.348l0.638-0.188c0.536-0.158 1.029-0.434 1.444-0.808s0.742-0.835 0.955-1.351c0.214-0.516 0.309-1.073 0.28-1.631s-0.183-1.102-0.45-1.592l-0.32-0.584c-0.83-1.528 0.84-3.2 2.37-2.368l0.584 0.318c0.491 0.267 1.035 0.421 1.593 0.451s1.115-0.066 1.632-0.28c0.516-0.214 0.978-0.54 1.352-0.956s0.65-0.909 0.808-1.445l0.188-0.638z"></path>
</symbol>
<symbol id="icon-fuel-pump" viewBox="0 0 32 32">
<path d="M6 5c0-0.265 0.105-0.52 0.293-0.707s0.442-0.293 0.707-0.293h10c0.265 0 0.52 0.105 0.707 0.293s0.293 0.442 0.293 0.707v10c0 0.265-0.105 0.52-0.293 0.707s-0.442 0.293-0.707 0.293h-10c-0.265 0-0.52-0.105-0.707-0.293s-0.293-0.442-0.293-0.707v-10z"></path>
<path d="M2 4c0-1.061 0.421-2.078 1.172-2.828s1.768-1.172 2.828-1.172h12c1.061 0 2.078 0.421 2.828 1.172s1.172 1.768 1.172 2.828v16c1.061 0 2.078 0.421 2.828 1.172s1.172 1.768 1.172 2.828v1c0 0.265 0.105 0.52 0.293 0.707s0.442 0.293 0.707 0.293 0.52-0.105 0.707-0.293c0.187-0.188 0.293-0.442 0.293-0.707v-9h-1c-0.265 0-0.52-0.105-0.707-0.293s-0.293-0.442-0.293-0.707v-6.25c0-0.265 0.105-0.52 0.293-0.707s0.442-0.293 0.707-0.293h2.99c-0.022-0.952-0.106-1.788-0.402-2.444-0.158-0.381-0.435-0.702-0.788-0.916-0.368-0.22-0.928-0.39-1.8-0.39-0.265 0-0.52-0.105-0.707-0.293s-0.293-0.442-0.293-0.707 0.105-0.52 0.293-0.707c0.188-0.188 0.442-0.293 0.707-0.293 1.128-0.003 2.069 0.221 2.824 0.672 0.766 0.456 1.268 1.102 1.588 1.814 0.59 1.31 0.588 2.93 0.588 4.162v6.35c0 0.131-0.025 0.262-0.076 0.383s-0.124 0.232-0.217 0.325-0.203 0.167-0.325 0.217c-0.122 0.050-0.252 0.076-0.383 0.076h-1v9c0 0.796-0.316 1.559-0.879 2.121s-1.326 0.879-2.121 0.879c-0.796 0-1.559-0.316-2.121-0.879s-0.879-1.326-0.879-2.121v-1c0-0.53-0.211-1.039-0.586-1.414s-0.884-0.586-1.414-0.586v8h1c0.265 0 0.52 0.105 0.707 0.293s0.293 0.442 0.293 0.707-0.105 0.52-0.293 0.707c-0.188 0.187-0.442 0.293-0.707 0.293h-22c-0.265 0-0.52-0.105-0.707-0.293s-0.293-0.442-0.293-0.707 0.105-0.52 0.293-0.707c0.188-0.187 0.442-0.293 0.707-0.293h1v-26zM20 4c0-0.53-0.211-1.039-0.586-1.414s-0.884-0.586-1.414-0.586h-12c-0.53 0-1.039 0.211-1.414 0.586s-0.586 0.884-0.586 1.414v26h16v-26z"></path>
</symbol>
<symbol id="icon-location" viewBox="0 0 26 32">
<path d="M20.332 17.88c-1.048 2.124-2.468 4.24-3.92 6.14-1.379 1.79-2.852 3.506-4.412 5.14-1.56-1.634-3.033-3.35-4.412-5.14-1.452-1.9-2.872-4.016-3.92-6.14-1.060-2.146-1.668-4.156-1.668-5.88 0-2.652 1.054-5.196 2.929-7.071s4.419-2.929 7.071-2.929c2.652 0 5.196 1.054 7.071 2.929s2.929 4.419 2.929 7.071c0 1.724-0.61 3.734-1.668 5.88zM12 32c0 0 12-11.372 12-20 0-3.183-1.264-6.235-3.515-8.485s-5.303-3.515-8.485-3.515-6.235 1.264-8.485 3.515c-2.25 2.25-3.515 5.303-3.515 8.485 0 8.628 12 20 12 20z"></path>
<path d="M12 16c-1.061 0-2.078-0.421-2.828-1.172s-1.172-1.768-1.172-2.828c0-1.061 0.421-2.078 1.172-2.828s1.768-1.172 2.828-1.172c1.061 0 2.078 0.421 2.828 1.172s1.172 1.768 1.172 2.828c0 1.061-0.421 2.078-1.172 2.828s-1.768 1.172-2.828 1.172zM12 18c1.591 0 3.117-0.632 4.243-1.757s1.757-2.651 1.757-4.243c0-1.591-0.632-3.117-1.757-4.243s-2.651-1.757-4.243-1.757c-1.591 0-3.117 0.632-4.243 1.757s-1.757 2.651-1.757 4.243c0 1.591 0.632 3.117 1.757 4.243s2.651 1.757 4.243 1.757z"></path>
</symbol>
<symbol id="icon-calendar" viewBox="0 0 32 32">
<path d="M7 0c0.265 0 0.52 0.105 0.707 0.293s0.293 0.442 0.293 0.707v1h16v-1c0-0.265 0.105-0.52 0.293-0.707s0.442-0.293 0.707-0.293 0.52 0.105 0.707 0.293c0.187 0.188 0.293 0.442 0.293 0.707v1h2c1.061 0 2.078 0.421 2.828 1.172s1.172 1.768 1.172 2.828v22c0 1.061-0.421 2.078-1.172 2.828s-1.768 1.172-2.828 1.172h-24c-1.061 0-2.078-0.421-2.828-1.172s-1.172-1.768-1.172-2.828v-22c0-1.061 0.421-2.078 1.172-2.828s1.768-1.172 2.828-1.172h2v-1c0-0.265 0.105-0.52 0.293-0.707s0.442-0.293 0.707-0.293zM4 4c-0.53 0-1.039 0.211-1.414 0.586s-0.586 0.884-0.586 1.414v22c0 0.53 0.211 1.039 0.586 1.414s0.884 0.586 1.414 0.586h24c0.53 0 1.039-0.211 1.414-0.586s0.586-0.884 0.586-1.414v-22c0-0.53-0.211-1.039-0.586-1.414s-0.884-0.586-1.414-0.586h-24z"></path>
<path d="M5 8c0-0.265 0.105-0.52 0.293-0.707s0.442-0.293 0.707-0.293h20c0.265 0 0.52 0.105 0.707 0.293s0.293 0.442 0.293 0.707v2c0 0.265-0.105 0.52-0.293 0.707s-0.442 0.293-0.707 0.293h-20c-0.265 0-0.52-0.105-0.707-0.293s-0.293-0.442-0.293-0.707v-2zM22 15c0-0.265 0.105-0.52 0.293-0.707s0.442-0.293 0.707-0.293h2c0.265 0 0.52 0.105 0.707 0.293s0.293 0.442 0.293 0.707v2c0 0.265-0.105 0.52-0.293 0.707s-0.442 0.293-0.707 0.293h-2c-0.265 0-0.52-0.105-0.707-0.293s-0.293-0.442-0.293-0.707v-2zM16 15c0-0.265 0.105-0.52 0.293-0.707s0.442-0.293 0.707-0.293h2c0.265 0 0.52 0.105 0.707 0.293s0.293 0.442 0.293 0.707v2c0 0.265-0.105 0.52-0.293 0.707s-0.442 0.293-0.707 0.293h-2c-0.265 0-0.52-0.105-0.707-0.293s-0.293-0.442-0.293-0.707v-2zM6 21c0-0.265 0.105-0.52 0.293-0.707s0.442-0.293 0.707-0.293h2c0.265 0 0.52 0.105 0.707 0.293s0.293 0.442 0.293 0.707v2c0 0.265-0.105 0.52-0.293 0.707s-0.442 0.293-0.707 0.293h-2c-0.265 0-0.52-0.105-0.707-0.293s-0.293-0.442-0.293-0.707v-2zM12 21c0-0.265 0.105-0.52 0.293-0.707s0.442-0.293 0.707-0.293h2c0.265 0 0.52 0.105 0.707 0.293s0.293 0.442 0.293 0.707v2c0 0.265-0.105 0.52-0.293 0.707s-0.442 0.293-0.707 0.293h-2c-0.265 0-0.52-0.105-0.707-0.293s-0.293-0.442-0.293-0.707v-2z"></path>
</symbol>
<symbol id="icon-fill-heart" viewBox="0 0 34 32">
<path d="M17.066 2.803c9.468-9.732 33.139 7.298 0 29.197-33.139-21.897-9.468-38.929 0-29.197z"></path>
</symbol>
<symbol id="icon-arrow-top" viewBox="0 0 59 32">
<path d="M28.099 0.671c0.212-0.213 0.465-0.382 0.742-0.497s0.575-0.175 0.876-0.175 0.598 0.059 0.876 0.175c0.278 0.115 0.53 0.284 0.742 0.497l27.428 27.429c0.429 0.429 0.671 1.011 0.671 1.618s-0.241 1.189-0.671 1.618c-0.429 0.429-1.011 0.67-1.618 0.67s-1.189-0.241-1.618-0.67l-25.81-25.815-25.81 25.815c-0.429 0.429-1.011 0.67-1.618 0.67s-1.189-0.241-1.618-0.67c-0.429-0.429-0.67-1.011-0.67-1.618s0.241-1.189 0.67-1.618l27.429-27.429z"></path>
</symbol>
<symbol id="icon-arrow-bottom" viewBox="0 0 59 32">
<path d="M0.671 0.671c0.212-0.213 0.465-0.382 0.742-0.497s0.575-0.175 0.876-0.175c0.301 0 0.598 0.059 0.876 0.175s0.53 0.284 0.742 0.497l25.81 25.815 25.81-25.815c0.213-0.213 0.465-0.381 0.742-0.496s0.576-0.174 0.876-0.174c0.3 0 0.598 0.059 0.876 0.174s0.53 0.284 0.742 0.496 0.381 0.465 0.496 0.742c0.115 0.278 0.174 0.575 0.174 0.876s-0.059 0.598-0.174 0.876c-0.115 0.278-0.283 0.53-0.496 0.742l-27.429 27.429c-0.212 0.213-0.465 0.382-0.742 0.497s-0.575 0.175-0.876 0.175c-0.301 0-0.598-0.059-0.876-0.175s-0.53-0.284-0.742-0.497l-27.429-27.429c-0.213-0.212-0.382-0.465-0.497-0.742s-0.175-0.575-0.175-0.876c0-0.301 0.059-0.598 0.175-0.876s0.284-0.53 0.497-0.742z"></path>
</symbol>
</defs>
</svg>
