<?xml version="1.0" standalone="no"?>
<!DOCTYPE svg PUBLIC "-//W3C//DTD SVG 20010904//EN"
 "http://www.w3.org/TR/2001/REC-SVG-20010904/DTD/svg10.dtd">
<svg version="1.0" xmlns="http://www.w3.org/2000/svg"
 width="1024.000000pt" height="1024.000000pt" viewBox="0 0 1024.000000 1024.000000"
 preserveAspectRatio="xMidYMid meet">

<g transform="translate(0.000000,1024.000000) scale(0.100000,-0.100000)"
fill="#000000" stroke="none">
<path d="M5513 6520 c-459 -26 -864 -120 -1223 -284 -168 -77 -315 -161 -574
-328 -407 -264 -438 -274 -1079 -353 -561 -70 -725 -99 -992 -176 -230 -66
-439 -154 -561 -235 -106 -70 -185 -185 -218 -317 -37 -145 -44 -392 -15 -527
16 -77 62 -164 104 -195 45 -35 128 -60 260 -80 93 -14 395 -38 401 -32 2 1
-6 34 -17 72 -34 123 -22 287 31 428 30 81 126 221 196 288 175 165 367 238
599 226 175 -9 322 -66 463 -180 134 -108 254 -299 287 -454 19 -89 19 -234 0
-306 -8 -32 -15 -62 -15 -67 0 -6 670 -10 1806 -10 1621 0 1806 2 1800 15 -31
82 -38 134 -33 249 5 130 19 183 77 297 84 167 257 329 423 398 306 126 651
56 885 -181 112 -113 177 -225 213 -367 23 -88 25 -233 5 -309 -12 -47 -12
-52 3 -48 9 3 93 17 186 31 322 50 523 101 607 154 141 89 219 238 247 471 27
217 -1 328 -111 431 l-38 36 0 104 c0 129 -17 322 -31 369 -15 46 -55 88 -104
110 -37 17 -166 41 -295 55 -30 3 -102 15 -160 26 -98 18 -124 29 -395 164
-159 79 -344 166 -410 193 -440 183 -818 272 -1340 317 -207 18 -774 27 -982
15z m587 -280 c581 -32 985 -154 1306 -393 85 -63 109 -90 98 -108 -12 -19
-95 -49 -192 -68 -225 -45 -532 -57 -1677 -66 -385 -3 -918 -7 -1185 -10
l-485 -5 35 31 c19 17 76 62 126 100 533 399 1159 564 1974 519z"/>
<path d="M2275 4790 c-131 -26 -226 -78 -322 -177 -267 -272 -215 -714 108
-923 96 -62 184 -85 324 -85 104 1 130 4 192 27 147 53 277 165 347 297 160
305 33 669 -284 814 -105 48 -260 68 -365 47z"/>
<path d="M7410 4785 c-319 -72 -531 -388 -466 -695 61 -293 328 -503 621 -487
387 20 660 382 565 751 -37 148 -120 261 -250 345 -128 83 -324 119 -470 86z"/>
</g>
</svg>
